# xmcd CD database file
# Copyright (C) 1997 Ti Kan
#
# Track frame offsets:
#  150
#  14753
#  27260
#  41048
#  52858
#  66853
#  79553
#  92750
#  105808
#  119243
#
# Disc length: 1753 seconds
#
# Revision: 1
# Processed by: cddbd v1.4b41PL1 Copyright (c) Steve Scherf et al.
# Submitted via: CDWizzard Release:4.32
#
DISCID=7b06d70a
DTITLE=Bill Monroe - Blue Moon Of Kentucky
DYEAR=1900
DGENRE=
TTITLE0=Girl In The Blue Velvet Band
TTITLE1=Toy Heart
TTITLE2=Blue Moon Of Kentucky
TTITLE3=Rocky Road Blues
TTITLE4=Blue Yodel No. 4
TTITLE5=Kentucky Waltz
TTITLE6=Summertime Is Past And Gone
TTITLE7=Will You Be Loving Another Man
TTITLE8=I Hear A Sweet Voice Calling
TTITLE9=Molly And Tenbrooks (The Race Horse Song)
EXTD=
EXTT0=
EXTT1=
EXTT2=
EXTT3=
EXTT4=
EXTT5=
EXTT6=
EXTT7=
EXTT8=
EXTT9=
PLAYORDER=
